<svg xmlns="http://www.w3.org/2000/svg" viewBox="0 0 25 28.571" width="25" height="28.571"><path d="M21.429 18.75H10.714a.896.896 0 0 1-.893-.893V3.571c0-.491.402-.893.893-.893h7.818l3.789 3.789v11.39a.896.896 0 0 1-.893.893m-10.714 2.679h10.714a3.574 3.574 0 0 0 3.571-3.571V6.468a2.68 2.68 0 0 0-.787-1.892L20.429.787A2.68 2.68 0 0 0 18.537 0h-7.823a3.574 3.574 0 0 0-3.571 3.571v14.286a3.574 3.574 0 0 0 3.571 3.571M3.571 7.143A3.574 3.574 0 0 0 0 10.714V25a3.574 3.574 0 0 0 3.571 3.571h10.714A3.574 3.574 0 0 0 17.856 25v-1.786h-2.679V25a.896.896 0 0 1-.893.893H3.571A.896.896 0 0 1 2.678 25V10.714c0-.491.402-.893.893-.893h1.786V7.142z"/></svg>